<?xml version="1.0" encoding="utf-8"?>
<!-- Generator: Adobe Illustrator 18.1.1, SVG Export Plug-In . SVG Version: 6.00 Build 0)  -->
<svg version="1.1" id="图层_1" xmlns="http://www.w3.org/2000/svg" xmlns:xlink="http://www.w3.org/1999/xlink" x="0px" y="0px"
	 viewBox="-293 385 24 24" enable-background="new -293 385 24 24" xml:space="preserve">
<path d="M-271.6,394.3c0.3,0,0.7,0,1,0.1c-0.9-5.1-5.4-8.8-10.4-8.8c-5.7,0-10.4,4.7-10.4,10.7c0,3.4,1.5,6.3,4.1,8.5l-1,3.8
	l3.6-2.2c1.3,0.3,2.3,0.6,3.6,0.6c0.3,0,0.6,0,1,0c-0.2-0.8-0.3-1.7-0.3-2.6C-280.4,398.7-276.5,394.3-271.6,394.3z M-277.2,390.9
	c0.8,0,1.3,0.6,1.3,1.6c0,0.9-0.5,1.6-1.3,1.6c-0.8,0-1.6-0.6-1.6-1.6C-278.7,391.5-277.9,390.9-277.2,390.9z M-284.4,394
	c-0.8,0-1.6-0.6-1.6-1.6c0-0.9,0.8-1.6,1.6-1.6s1.3,0.6,1.3,1.6C-283.1,393.4-283.6,394-284.4,394z"/>
</svg>
