<?xml version="1.0" encoding="utf-8"?>
<!-- Generator: Adobe Illustrator 18.1.1, SVG Export Plug-In . SVG Version: 6.00 Build 0)  -->
<svg version="1.1" id="图层_1" xmlns="http://www.w3.org/2000/svg" xmlns:xlink="http://www.w3.org/1999/xlink" x="0px" y="0px"
	 viewBox="-293 385 24 24" enable-background="new -293 385 24 24" xml:space="preserve">
<g>
	<path d="M-277.4,393.7c0.2,0,0.4,0,0.5,0c-0.5-2.5-2.9-4.4-5.6-4.4c-3.1,0-5.6,2.4-5.6,5.4c0,1.7,0.8,3.2,2.2,4.3l-0.6,1.9l2-1.1
		c0.7,0.2,1.3,0.3,2,0.3c0.2,0,0.4,0,0.5,0c-0.1-0.4-0.2-0.9-0.2-1.3C-282.2,396-280.1,393.7-277.4,393.7z M-280.5,392
		c0.4,0,0.7,0.3,0.7,0.8c0,0.5-0.3,0.8-0.7,0.8c-0.4,0-0.8-0.3-0.8-0.8C-281.3,392.3-280.9,392-280.5,392z M-284.4,393.6
		c-0.4,0-0.8-0.3-0.8-0.8c0-0.5,0.4-0.8,0.8-0.8c0.4,0,0.7,0.3,0.7,0.8C-283.7,393.3-283.9,393.6-284.4,393.6z"/>
	<path d="M-272.3,398.7c0-2.5-2.2-4.6-4.8-4.6c-2.7,0-4.8,2.1-4.8,4.6c0,2.5,2.1,4.6,4.8,4.6c0.6,0,1.1-0.2,1.7-0.3l1.5,0.9
		l-0.4-1.6C-273.2,401.3-272.3,400.1-272.3,398.7z M-278.6,397.9c-0.3,0-0.6-0.3-0.6-0.6c0-0.3,0.3-0.6,0.6-0.6
		c0.4,0,0.7,0.3,0.7,0.6C-277.9,397.6-278.2,397.9-278.6,397.9z M-275.6,397.9c-0.3,0-0.6-0.3-0.6-0.6c0-0.3,0.3-0.6,0.6-0.6
		c0.4,0,0.7,0.3,0.7,0.6C-274.9,397.6-275.1,397.9-275.6,397.9z"/>
</g>
</svg>
