<svg width="1056" height="514" xmlns="http://www.w3.org/2000/svg">
 <!-- Created with Method Draw - http://github.com/duopixel/Method-Draw/ -->

 <g>
  <title>background</title>
  <rect fill="#fff" id="canvas_background" height="516" width="1058" y="-1" x="-1"/>
  <g display="none" overflow="visible" y="0" x="0" height="100%" width="100%" id="canvasGrid">
   <rect fill="url(#gridpattern)" stroke-width="0" y="0" x="0" height="100%" width="100%"/>
  </g>
 </g>
 <g>
  <title>Layer 1</title>
  <metadata transform="matrix(0.029355109245671196,0,0,0.029355109245671196,0,0) ">Svg Vector Icons : http://www.onlinewebfonts.com/icon</metadata>
  <g stroke="null" transform="translate(166.03773498535156,90.56603240966797) translate(-6,-24) " id="svg_6">
   <g stroke="null" transform="matrix(0.6414031257558964,0,0,0.7423942625820366,-10548.972821910236,-5885.040532354281) " id="svg_4">
    <path stroke="null" id="svg_5" d="m16947.027232,7755.391684c-138.9,30.9 -235.9,145.2 -247.2,289.9c-1.2,18 -3.9,32.5 -5.9,32.5c-5.9,0 -18.8,25 -18.8,36.4c0,5.9 -2.7,15.3 -6.3,20.3c-4.7,7.4 -5.9,16.4 -4.7,37.9l1.6,28.6l-24.6,32.5c-60.2,79 -83.7,163.1 -65.7,233.5c8.2,30.9 13.3,36 29.3,29.3c12.5,-5.1 45,-38.7 52,-54c4.3,-9.4 10.6,-11.7 10.6,-3.9c0,9.4 23.9,55.5 41.5,80.6c9.8,13.7 17.2,25.4 16.4,25.8c-0.4,0.8 -8.2,5.1 -16.8,9.4c-32.1,16.4 -46.2,40.3 -46.5,81c-0.4,14.1 2,23.1 7.4,30.9c4.3,6.3 9.8,14.5 12.1,18.4c13.7,23.5 38.7,35.2 91.1,43c39.1,5.5 66.1,3.1 143.2,-12.1c77.8,-15.3 110.3,-15.3 191.3,0.8c114.6,22.7 184.2,15.3 221,-23.5c27.4,-29.7 35.6,-54 26.2,-77.1c-3.1,-7 -4.7,-14.1 -3.5,-14.9c0.8,-1.2 -1.2,-7.4 -4.3,-14.1c-7.4,-13.7 -26.2,-28.9 -46.5,-37.5l-14.1,-5.9l20.7,-30.5c11.3,-16.8 25.4,-43 31.7,-58.7l11,-28.2l14.5,22.3c15.3,23.5 36.4,45.4 47.7,49.3c16.4,5.9 30.1,-28.2 33.2,-81.4c1.6,-28.2 0.4,-42.2 -6.3,-68.5c-9.4,-38.7 -39.9,-101.7 -64.1,-134.2c-16.8,-22.3 -17.2,-22.3 -13.3,-43c4.7,-26.6 -1.6,-58.3 -16.8,-82.5c-9.4,-14.5 -12.5,-25.4 -15.6,-52.4c-14.6,-127.4 -104.2,-234.6 -229,-274.5c-36.4,-11.7 -112.6,-14.5 -152.5,-5.5zm168.6,140.8c17.2,11.3 29.7,38.3 32.1,67.7c6.3,90.7 -64.1,133.4 -101.7,61.4c-12.9,-23.9 -12.5,-75.5 0.4,-101.3c14.8,-30.9 45.7,-43 69.2,-27.8zm-164.3,4c17.6,11.7 30.1,38.3 32.1,69.6c2,35.2 -3.9,57.5 -21.1,76.3c-15.6,17.6 -31.7,22.3 -49.7,14.5c-28.2,-12.1 -43,-40.7 -43,-84.5c0,-32.9 9.4,-57.5 27.8,-73.1c12.8,-11.1 39.4,-12.2 53.9,-2.8zm168.9,188.9c50.8,12.9 106.4,41.5 106.4,55.2c0,7.4 -34.4,29.3 -55.5,35.2c-12.5,3.9 -12.1,2.7 3.9,-18.8c14.1,-18.8 8.2,-19.2 -15.6,-1.2c-86.8,65.3 -191.7,66.9 -276.1,3.5c-11.7,-8.6 -21.9,-14.9 -22.7,-13.7c-1.2,0.8 2,8.2 6.6,16c4.7,7.8 7.4,15.3 6.3,16.4c-2.7,2.7 -35.2,-11.3 -49.7,-21.9c-6.6,-4.7 -11.7,-11.7 -11.7,-16c0,-16.4 71.2,-48.5 132.6,-60.2c42.2,-8.2 132.5,-5.1 175.5,5.5l0,0zm-252.6,136.9c32.5,11.3 90,19.9 131,19.9c24.6,0 36.4,1.6 36.4,4.7c0,5.9 -77.1,1.6 -119.7,-6.6c-33.6,-6.3 -68.1,-16.8 -73.5,-21.9c-6.3,-5.5 1.9,-4.3 25.8,3.9l0,0zm224.1,19.9c-6.3,1.6 -21.5,2.7 -33.2,2.7l-21.5,0l23.5,-2.7c12.9,-1.6 27.8,-2.7 33.2,-2.7c8.6,-0.4 8.2,0 -2,2.7zm-316,57.9c3.1,2 2.3,15.6 -3.1,53.6c-9.4,63 -7.4,87.2 9,105.6c14.9,17.2 40.7,26.6 73.1,27c54,0.8 59.1,-6.3 59.1,-82.1l0,-49.7l32.5,3.5c118.1,12.5 231.9,-11.3 315.3,-66.9c11.7,-7.8 22.7,-12.5 24.2,-11c14.5,14.5 19.9,109.5 9.4,151.8c-31.3,120.9 -138.9,206.1 -267.9,212c-90.7,4.3 -165.1,-23.5 -226.9,-84.9c-46.9,-46.9 -73.9,-102.5 -80.2,-166.6c-2.7,-30.1 3.1,-81 12.1,-102.5l5.5,-12.9l16.4,10.2c9.3,5.5 18.7,11.3 21.5,12.9l0,0zm-33.7,261.3c3.1,3.5 11.7,10.6 19.2,15.3c7.4,5.1 20.7,15.6 29.7,23.9c8.6,8.6 28.6,25.4 43.8,37.9c20.3,16.4 28.2,25.4 28.2,31.7c0,11.7 -7.8,14.1 -54,14.1c-64.5,0 -114.2,-18 -126.7,-45.4c-4.3,-9 -3.5,-12.9 5.5,-29.3c9.4,-18 9.8,-19.2 2.7,-21.1c-9.8,-3.1 -5.5,-10.6 12.1,-23.5c16,-11 32.1,-12.6 39.5,-3.6l0,0zm566,-0.8c21.9,11.3 30.5,29.7 13.7,29.7c-5.5,0 -5.5,1.2 0.8,7.8c3.9,4.3 7.8,16 9,26.6c1.6,17.6 0.8,19.6 -12.5,31.3c-21.9,19.2 -50.8,26.2 -107.2,25.4c-36,0 -50.1,-1.6 -54,-5.9c-8.2,-7.8 1.2,-19.2 28.9,-34.8c34.8,-19.9 48.5,-30.5 53.2,-39.5c2.3,-4.7 9.8,-9.8 16.4,-11.7c7.8,-2 16,-8.6 23.1,-18.8c12.2,-17.5 13.7,-17.9 28.6,-10.1zm-242.9,-612.5c-9.4,10.2 -15.3,28.6 -12.5,39.1c3.1,12.9 10.6,9 15.6,-9.4c5.1,-19.2 19.9,-23.9 23.5,-7.8l3.9,20.3c3.9,17.6 11.7,8.2 11.7,-14.1c-0.4,-16.8 -2,-21.9 -9.4,-27.8c-11.3,-9.3 -24.6,-9.3 -32.8,-0.3l0,0zm-133.4,-3.5c-15.3,16.8 -14.1,49.3 2.3,61c12.1,8.2 17.6,7.4 28.6,-3.9c7.4,-7 9.8,-13.7 9.8,-27.4c0,-29.3 -24.6,-47.3 -40.7,-29.7l0,0zm27,24.2c0,11 -11.3,14.9 -15.3,5.1c-2.7,-7.4 4.3,-18.4 11,-16c2.4,0.8 4.3,5.4 4.3,10.9l0,0z"/>
   </g>
  </g>
 </g>
</svg>