<?xml version="1.0" encoding="utf-8"?>
<!-- Generator: Adobe Illustrator 18.1.1, SVG Export Plug-In . SVG Version: 6.00 Build 0)  -->
<svg version="1.1" id="图层_1" xmlns="http://www.w3.org/2000/svg" xmlns:xlink="http://www.w3.org/1999/xlink" x="0px" y="0px"
	 viewBox="-293 385 24 24" enable-background="new -293 385 24 24" xml:space="preserve">
<g>
	<path d="M-281.2,385.1c-3.4,0.7-5.8,3.3-6.1,6.5c0,0.4-0.1,0.7-0.1,0.7c-0.1,0-0.5,0.6-0.5,0.8c0,0.1-0.1,0.3-0.2,0.5
		c-0.1,0.2-0.1,0.4-0.1,0.8l0,0.6l-0.6,0.7c-1.5,1.8-2.1,3.7-1.6,5.2c0.2,0.7,0.3,0.8,0.7,0.7c0.3-0.1,1.1-0.9,1.3-1.2
		c0.1-0.2,0.3-0.3,0.3-0.1c0,0.2,0.6,1.2,1,1.8c0.2,0.3,0.4,0.6,0.4,0.6c0,0-0.2,0.1-0.4,0.2c-0.8,0.4-1.1,0.9-1.1,1.8
		c0,0.3,0,0.5,0.2,0.7c0.1,0.1,0.2,0.3,0.3,0.4c0.3,0.5,0.9,0.8,2.2,1c1,0.1,1.6,0.1,3.5-0.3c1.9-0.3,2.7-0.3,4.7,0
		c2.8,0.5,4.5,0.3,5.4-0.5c0.7-0.7,0.9-1.2,0.6-1.7c-0.1-0.2-0.1-0.3-0.1-0.3c0,0,0-0.2-0.1-0.3c-0.2-0.3-0.6-0.6-1.1-0.8l-0.3-0.1
		l0.5-0.7c0.3-0.4,0.6-1,0.8-1.3l0.3-0.6l0.4,0.5c0.4,0.5,0.9,1,1.2,1.1c0.4,0.1,0.7-0.6,0.8-1.8c0-0.6,0-0.9-0.2-1.5
		c-0.2-0.9-1-2.3-1.6-3c-0.4-0.5-0.4-0.5-0.3-1c0.1-0.6,0-1.3-0.4-1.9c-0.2-0.3-0.3-0.6-0.4-1.2c-0.4-2.9-2.6-5.3-5.6-6.2
		C-278.4,385-280.2,384.9-281.2,385.1z M-277.1,388.3c0.4,0.3,0.7,0.9,0.8,1.5c0.2,2-1.6,3-2.5,1.4c-0.3-0.5-0.3-1.7,0-2.3
		C-278.4,388.2-277.7,387.9-277.1,388.3z M-281.1,388.4c0.4,0.3,0.7,0.9,0.8,1.6c0,0.8-0.1,1.3-0.5,1.7c-0.4,0.4-0.8,0.5-1.2,0.3
		c-0.7-0.3-1.1-0.9-1.1-1.9c0-0.7,0.2-1.3,0.7-1.6C-282.1,388.2-281.5,388.2-281.1,388.4z M-277,392.6c1.2,0.3,2.6,0.9,2.6,1.2
		c0,0.2-0.8,0.7-1.4,0.8c-0.3,0.1-0.3,0.1,0.1-0.4c0.3-0.4,0.2-0.4-0.4,0c-2.1,1.5-4.7,1.5-6.8,0.1c-0.3-0.2-0.5-0.3-0.6-0.3
		c0,0,0,0.2,0.2,0.4c0.1,0.2,0.2,0.3,0.2,0.4c-0.1,0.1-0.9-0.3-1.2-0.5c-0.2-0.1-0.3-0.3-0.3-0.4c0-0.4,1.7-1.1,3.3-1.3
		C-280.2,392.3-278,392.4-277,392.6L-277,392.6z M-283.2,395.7c0.8,0.3,2.2,0.4,3.2,0.4c0.6,0,0.9,0,0.9,0.1c0,0.1-1.9,0-2.9-0.1
		c-0.8-0.1-1.7-0.4-1.8-0.5C-283.9,395.5-283.7,395.5-283.2,395.7L-283.2,395.7z M-277.7,396.1c-0.2,0-0.5,0.1-0.8,0.1h-0.5l0.6-0.1
		C-278.1,396.1-277.7,396.1-277.7,396.1C-277.4,396-277.4,396.1-277.7,396.1z M-285.4,397.4c0.1,0,0.1,0.3-0.1,1.2
		c-0.2,1.4-0.2,2,0.2,2.4c0.4,0.4,1,0.6,1.8,0.6c1.3,0,1.4-0.1,1.4-1.8v-1.1l0.8,0.1c2.9,0.3,5.7-0.3,7.7-1.5
		c0.3-0.2,0.6-0.3,0.6-0.2c0.4,0.3,0.5,2.5,0.2,3.4c-0.8,2.7-3.4,4.6-6.6,4.8c-2.2,0.1-4-0.5-5.6-1.9c-1.1-1.1-1.8-2.3-2-3.7
		c-0.1-0.7,0.1-1.8,0.3-2.3l0.1-0.3l0.4,0.2C-285.7,397.3-285.5,397.4-285.4,397.4L-285.4,397.4z M-286.2,403.3
		c0.1,0.1,0.3,0.2,0.5,0.3c0.2,0.1,0.5,0.3,0.7,0.5c0.2,0.2,0.7,0.6,1.1,0.8c0.5,0.4,0.7,0.6,0.7,0.7c0,0.3-0.2,0.3-1.3,0.3
		c-1.6,0-2.8-0.4-3.1-1c-0.1-0.2-0.1-0.3,0.1-0.7c0.2-0.4,0.2-0.4,0.1-0.5c-0.2-0.1-0.1-0.2,0.3-0.5
		C-286.8,403.1-286.4,403.1-286.2,403.3L-286.2,403.3z M-272.4,403.3c0.5,0.3,0.7,0.7,0.3,0.7c-0.1,0-0.1,0,0,0.2
		c0.1,0.1,0.2,0.4,0.2,0.6c0,0.4,0,0.4-0.3,0.7c-0.5,0.4-1.2,0.6-2.6,0.6c-0.9,0-1.2,0-1.3-0.1c-0.2-0.2,0-0.4,0.7-0.8
		c0.9-0.4,1.2-0.7,1.3-0.9c0.1-0.1,0.2-0.2,0.4-0.3c0.2,0,0.4-0.2,0.6-0.4C-272.8,403.1-272.7,403.1-272.4,403.3z M-278.3,389.5
		c-0.2,0.2-0.4,0.6-0.3,0.9c0.1,0.3,0.3,0.2,0.4-0.2c0.1-0.4,0.5-0.5,0.6-0.2l0.1,0.5c0.1,0.4,0.3,0.2,0.3-0.3c0-0.4,0-0.5-0.2-0.6
		C-277.8,389.3-278.1,389.3-278.3,389.5L-278.3,389.5z M-281.6,389.4c-0.4,0.4-0.3,1.1,0.1,1.4c0.3,0.2,0.4,0.2,0.7-0.1
		c0.2-0.2,0.2-0.3,0.2-0.6C-280.6,389.5-281.2,389.1-281.6,389.4L-281.6,389.4z M-280.9,390c0,0.2-0.3,0.3-0.4,0.1
		c-0.1-0.2,0.1-0.4,0.3-0.4C-281,389.8-280.9,389.9-280.9,390L-280.9,390z"/>
</g>
</svg>
