<?xml version="1.0" encoding="UTF-8"?>
<svg xmlns="http://www.w3.org/2000/svg" xmlns:xlink="http://www.w3.org/1999/xlink" width="24pt" height="24pt" viewBox="0 0 24 24" version="1.1">
<g id="surface1">
<path style=" stroke:none;fill-rule:nonzero;fill:rgb(0%,0%,0%);fill-opacity:1;" d="M 10.554688 0.367188 C 7.21875 1.109375 4.890625 3.851562 4.621094 7.324219 C 4.589844 7.757812 4.527344 8.105469 4.476562 8.105469 C 4.335938 8.105469 4.027344 8.703125 4.027344 8.976562 C 4.027344 9.121094 3.960938 9.34375 3.875 9.464844 C 3.761719 9.644531 3.734375 9.859375 3.761719 10.375 L 3.800781 11.0625 L 3.210938 11.839844 C 1.765625 13.738281 1.203125 15.757812 1.632812 17.445312 C 1.832031 18.1875 1.953125 18.308594 2.335938 18.148438 C 2.636719 18.027344 3.417969 17.21875 3.585938 16.851562 C 3.6875 16.628906 3.839844 16.570312 3.839844 16.757812 C 3.839844 16.984375 4.414062 18.089844 4.835938 18.695312 C 5.070312 19.023438 5.25 19.304688 5.230469 19.3125 C 5.21875 19.332031 5.03125 19.433594 4.828125 19.539062 C 4.054688 19.933594 3.71875 20.503906 3.710938 21.480469 C 3.699219 21.820312 3.757812 22.035156 3.886719 22.222656 C 3.992188 22.375 4.125 22.570312 4.179688 22.664062 C 4.507812 23.230469 5.105469 23.511719 6.363281 23.699219 C 7.304688 23.828125 7.953125 23.773438 9.800781 23.40625 C 11.667969 23.039062 12.449219 23.039062 14.394531 23.425781 C 17.144531 23.972656 18.8125 23.792969 19.695312 22.863281 C 20.355469 22.148438 20.550781 21.566406 20.324219 21.011719 C 20.25 20.84375 20.210938 20.671875 20.242188 20.65625 C 20.261719 20.625 20.210938 20.476562 20.136719 20.316406 C 19.960938 19.988281 19.507812 19.621094 19.023438 19.414062 L 18.683594 19.273438 L 19.179688 18.542969 C 19.453125 18.140625 19.789062 17.511719 19.941406 17.132812 L 20.207031 16.457031 L 20.554688 16.992188 C 20.921875 17.554688 21.425781 18.082031 21.699219 18.175781 C 22.09375 18.316406 22.421875 17.5 22.496094 16.222656 C 22.535156 15.542969 22.503906 15.207031 22.34375 14.578125 C 22.117188 13.648438 21.386719 12.136719 20.804688 11.355469 C 20.402344 10.820312 20.394531 10.820312 20.488281 10.324219 C 20.597656 9.6875 20.449219 8.925781 20.082031 8.34375 C 19.859375 7.996094 19.78125 7.734375 19.707031 7.085938 C 19.359375 4.03125 17.207031 1.457031 14.210938 0.5 C 13.339844 0.21875 11.511719 0.152344 10.554688 0.367188 Z M 14.597656 3.746094 C 15.011719 4.019531 15.3125 4.664062 15.371094 5.371094 C 15.519531 7.546875 13.832031 8.574219 12.929688 6.84375 C 12.621094 6.269531 12.628906 5.03125 12.9375 4.414062 C 13.292969 3.671875 14.035156 3.382812 14.597656 3.746094 Z M 10.65625 3.84375 C 11.078125 4.125 11.378906 4.761719 11.425781 5.511719 C 11.472656 6.359375 11.332031 6.894531 10.921875 7.34375 C 10.546875 7.765625 10.160156 7.878906 9.726562 7.691406 C 9.050781 7.402344 8.695312 6.714844 8.695312 5.664062 C 8.695312 4.875 8.921875 4.285156 9.363281 3.910156 C 9.667969 3.644531 10.308594 3.617188 10.65625 3.84375 Z M 14.710938 8.375 C 15.929688 8.6875 17.261719 9.371094 17.261719 9.699219 C 17.261719 9.878906 16.4375 10.402344 15.929688 10.546875 C 15.632812 10.640625 15.640625 10.609375 16.023438 10.09375 C 16.363281 9.644531 16.222656 9.632812 15.652344 10.066406 C 13.566406 11.632812 11.050781 11.671875 9.023438 10.148438 C 8.742188 9.941406 8.5 9.792969 8.480469 9.820312 C 8.449219 9.839844 8.527344 10.019531 8.636719 10.203125 C 8.75 10.390625 8.816406 10.570312 8.789062 10.597656 C 8.722656 10.664062 7.945312 10.328125 7.597656 10.074219 C 7.4375 9.960938 7.316406 9.792969 7.316406 9.6875 C 7.316406 9.296875 9.023438 8.523438 10.496094 8.242188 C 11.511719 8.046875 13.675781 8.121094 14.710938 8.375 Z M 8.648438 11.660156 C 9.425781 11.933594 10.808594 12.140625 11.792969 12.140625 C 12.382812 12.140625 12.664062 12.175781 12.664062 12.253906 C 12.664062 12.394531 10.8125 12.289062 9.792969 12.09375 C 8.984375 11.941406 8.15625 11.691406 8.027344 11.566406 C 7.875 11.4375 8.074219 11.464844 8.648438 11.660156 Z M 14.027344 12.140625 C 13.875 12.175781 13.507812 12.203125 13.230469 12.203125 L 12.710938 12.203125 L 13.277344 12.140625 C 13.585938 12.101562 13.945312 12.074219 14.074219 12.074219 C 14.28125 12.066406 14.269531 12.074219 14.027344 12.140625 Z M 6.441406 13.527344 C 6.515625 13.578125 6.496094 13.902344 6.367188 14.816406 C 6.140625 16.328125 6.191406 16.90625 6.582031 17.347656 C 6.941406 17.761719 7.558594 17.988281 8.335938 17.996094 C 9.632812 18.015625 9.757812 17.847656 9.757812 16.027344 L 9.757812 14.835938 L 10.535156 14.917969 C 13.371094 15.21875 16.101562 14.648438 18.101562 13.3125 C 18.382812 13.125 18.648438 13.011719 18.683594 13.046875 C 19.03125 13.398438 19.160156 15.675781 18.910156 16.691406 C 18.160156 19.59375 15.574219 21.636719 12.480469 21.78125 C 10.304688 21.882812 8.519531 21.214844 7.035156 19.742188 C 5.910156 18.617188 5.261719 17.28125 5.109375 15.742188 C 5.042969 15.023438 5.183594 13.800781 5.398438 13.285156 L 5.53125 12.972656 L 5.925781 13.21875 C 6.148438 13.351562 6.375 13.492188 6.441406 13.527344 Z M 5.632812 19.800781 C 5.707031 19.882812 5.914062 20.054688 6.09375 20.167969 C 6.269531 20.289062 6.589844 20.542969 6.804688 20.742188 C 7.011719 20.945312 7.492188 21.351562 7.859375 21.652344 C 8.34375 22.042969 8.535156 22.261719 8.535156 22.410156 C 8.535156 22.691406 8.347656 22.75 7.238281 22.75 C 5.691406 22.75 4.496094 22.316406 4.199219 21.660156 C 4.09375 21.445312 4.113281 21.351562 4.328125 20.957031 C 4.554688 20.523438 4.566406 20.496094 4.394531 20.449219 C 4.160156 20.375 4.261719 20.195312 4.683594 19.886719 C 5.070312 19.621094 5.457031 19.585938 5.632812 19.800781 Z M 19.21875 19.78125 C 19.742188 20.050781 19.949219 20.492188 19.546875 20.492188 C 19.414062 20.492188 19.414062 20.523438 19.566406 20.679688 C 19.660156 20.785156 19.753906 21.066406 19.78125 21.320312 C 19.820312 21.742188 19.800781 21.789062 19.480469 22.070312 C 18.957031 22.53125 18.261719 22.699219 16.90625 22.679688 C 16.042969 22.679688 15.707031 22.640625 15.613281 22.539062 C 15.414062 22.351562 15.640625 22.078125 16.304688 21.703125 C 17.140625 21.226562 17.46875 20.972656 17.582031 20.753906 C 17.636719 20.640625 17.816406 20.519531 17.976562 20.472656 C 18.164062 20.425781 18.359375 20.269531 18.53125 20.023438 C 18.824219 19.601562 18.859375 19.59375 19.21875 19.78125 Z M 13.386719 5.082031 C 13.160156 5.324219 13.019531 5.765625 13.085938 6.019531 C 13.160156 6.328125 13.339844 6.234375 13.460938 5.792969 C 13.585938 5.332031 13.9375 5.21875 14.027344 5.605469 L 14.121094 6.09375 C 14.210938 6.515625 14.398438 6.289062 14.398438 5.753906 C 14.390625 5.351562 14.351562 5.230469 14.175781 5.089844 C 13.902344 4.863281 13.585938 4.863281 13.386719 5.082031 Z M 10.1875 4.996094 C 9.820312 5.398438 9.847656 6.179688 10.242188 6.460938 C 10.53125 6.65625 10.664062 6.636719 10.925781 6.367188 C 11.105469 6.199219 11.164062 6.039062 11.164062 5.710938 C 11.164062 5.007812 10.570312 4.574219 10.1875 4.996094 Z M 10.832031 5.578125 C 10.832031 5.839844 10.5625 5.933594 10.464844 5.699219 C 10.402344 5.523438 10.570312 5.257812 10.730469 5.316406 C 10.789062 5.335938 10.832031 5.445312 10.832031 5.578125 Z M 10.832031 5.578125 "/>
</g>
</svg>
