<svg xmlns="http://www.w3.org/2000/svg" viewBox="0 0 24 24"><path d="M673.4 333.8c11.2 0 22.4.9 33.4 2.1-30-147.3-179.4-256.8-350-256.8-190.7 0-346.8 137-346.8 311C10 490.5 61.9 573 148.8 637l-34.7 110 121.2-64c43.4 9 78.2 18.3 121.5 18.3 10.9 0 21.7-.6 32.4-1.4-6.8-24.5-10.7-50.1-10.7-76.6 0-159.8 130.1-289.5 294.9-289.5zm-186.5-99.1c26.1 0 43.4 18.1 43.4 45.6 0 27.4-17.3 45.8-43.4 45.8-26 0-52.1-18.4-52.1-45.8.1-27.5 26.1-45.6 52.1-45.6zm-242.7 91.4c-26 0-52.2-18.4-52.2-45.8 0-27.5 26.2-45.6 52.2-45.6 26 0 43.3 18.1 43.3 45.6 0 27.4-17.3 45.8-43.3 45.8z"/><path d="M990 618.9c0-146.2-138.8-265.4-294.6-265.4-165.1 0-295 119.2-295 265.4 0 146.4 130 265.3 295 265.3 34.5 0 69.4-9.1 104.1-18.3l95.2 54.9-26.1-91.4c69.5-55 121.4-128.1 121.4-210.5zm-390.3-45.8c-17.3 0-34.7-18.1-34.7-36.6 0-18.2 17.4-36.6 34.7-36.6 26.2 0 43.4 18.4 43.4 36.6 0 18.5-17.1 36.6-43.4 36.6zm190.8 0c-17.2 0-34.5-18.1-34.5-36.6 0-18.2 17.3-36.6 34.5-36.6 26 0 43.4 18.4 43.4 36.6 0 18.5-17.4 36.6-43.4 36.6z"/></svg>