<?xml version="1.0" encoding="utf-8"?>
<!-- Generator: Adobe Illustrator 18.1.1, SVG Export Plug-In . SVG Version: 6.00 Build 0)  -->
<svg version="1.1" id="图层_1" xmlns="http://www.w3.org/2000/svg" xmlns:xlink="http://www.w3.org/1999/xlink" x="0px" y="0px"
	 viewBox="-293 385 24 24" enable-background="new -293 385 24 24" xml:space="preserve">
<g>
	<path d="M-277.9,394.4c0.2,0,0.4,0,0.6,0c-0.5-2.3-3.3-4-6.3-4c-3.5,0-6.3,2.1-6.3,4.8c0,1.6,0.9,2.9,2.5,3.8l-0.6,1.7l2.2-1
		c0.8,0.1,1.4,0.3,2.2,0.3c0.2,0,0.4,0,0.6,0c-0.1-0.4-0.2-0.8-0.2-1.2C-283.2,396.4-280.8,394.4-277.9,394.4z M-281.2,392.9
		c0.5,0,0.8,0.3,0.8,0.7c0,0.4-0.3,0.7-0.8,0.7c-0.5,0-0.9-0.3-0.9-0.7C-282.2,393.1-281.7,392.9-281.2,392.9z M-285.6,394.3
		c-0.5,0-0.9-0.3-0.9-0.7c0-0.4,0.5-0.7,0.9-0.7s0.8,0.3,0.8,0.7C-284.9,394-285.2,394.3-285.6,394.3z"/>
	<path d="M-272.1,398.9c0-2.3-2.5-4.1-5.3-4.1c-3,0-5.3,1.9-5.3,4.1c0,2.3,2.4,4.1,5.3,4.1c0.6,0,1.3-0.1,1.9-0.3l1.7,0.9l-0.5-1.4
		C-273.1,401.3-272.1,400.1-272.1,398.9z M-279.2,398.1c-0.3,0-0.6-0.3-0.6-0.6c0-0.3,0.3-0.6,0.6-0.6c0.5,0,0.8,0.3,0.8,0.6
		C-278.4,397.9-278.7,398.1-279.2,398.1z M-275.7,398.1c-0.3,0-0.6-0.3-0.6-0.6c0-0.3,0.3-0.6,0.6-0.6c0.5,0,0.8,0.3,0.8,0.6
		C-274.9,397.9-275.3,398.1-275.7,398.1z"/>
</g>
</svg>
