<?xml version="1.0" encoding="utf-8"?>
<!-- Svg Vector Icons : http://www.onlinewebfonts.com/icon -->
<!DOCTYPE svg PUBLIC "-//W3C//DTD SVG 1.1//EN" "http://www.w3.org/Graphics/SVG/1.1/DTD/svg11.dtd">
<svg version="1.1" xmlns="http://www.w3.org/2000/svg" xmlns:xlink="http://www.w3.org/1999/xlink" x="0px" y="0px" viewBox="0 0 1000 1000" enable-background="new 0 0 1000 1000" xml:space="preserve">
<metadata> Svg Vector Icons : http://www.onlinewebfonts.com/icon </metadata>
<g><path d="M673.4,333.8c11.2,0,22.4,0.9,33.4,2.1c-30-147.3-179.4-256.8-350-256.8c-190.7,0-346.8,137-346.8,311c0,100.4,51.9,182.9,138.8,246.9l-34.7,110L235.3,683c43.4,9,78.2,18.3,121.5,18.3c10.9,0,21.7-0.6,32.4-1.4c-6.8-24.5-10.7-50.1-10.7-76.6C378.5,463.5,508.6,333.8,673.4,333.8z M486.9,234.7c26.1,0,43.4,18.1,43.4,45.6c0,27.4-17.3,45.8-43.4,45.8c-26,0-52.1-18.4-52.1-45.8C434.9,252.8,460.9,234.7,486.9,234.7z M244.2,326.1c-26,0-52.2-18.4-52.2-45.8c0-27.5,26.2-45.6,52.2-45.6c26,0,43.3,18.1,43.3,45.6C287.5,307.7,270.2,326.1,244.2,326.1z"/><path d="M990,618.9c0-146.2-138.8-265.4-294.6-265.4c-165.1,0-295,119.2-295,265.4c0,146.4,130,265.3,295,265.3c34.5,0,69.4-9.1,104.1-18.3l95.2,54.9l-26.1-91.4C938.1,774.4,990,701.3,990,618.9z M599.7,573.1c-17.3,0-34.7-18.1-34.7-36.6c0-18.2,17.4-36.6,34.7-36.6c26.2,0,43.4,18.4,43.4,36.6C643.1,555,626,573.1,599.7,573.1z M790.5,573.1c-17.2,0-34.5-18.1-34.5-36.6c0-18.2,17.3-36.6,34.5-36.6c26,0,43.4,18.4,43.4,36.6C833.9,555,816.5,573.1,790.5,573.1z"/></g>
</svg>