<?xml version="1.0" encoding="UTF-8"?>
<svg xmlns="http://www.w3.org/2000/svg" xmlns:xlink="http://www.w3.org/1999/xlink" width="24pt" height="24pt" viewBox="0 0 24 24" version="1.1">
<g id="surface1">
<path style=" stroke:none;fill-rule:nonzero;fill:rgb(0%,0%,0%);fill-opacity:1;" d="M 16.160156 8.011719 C 16.429688 8.011719 16.699219 8.03125 16.964844 8.0625 C 16.242188 4.527344 12.65625 1.898438 8.5625 1.898438 C 3.988281 1.898438 0.238281 5.1875 0.238281 9.363281 C 0.238281 11.773438 1.484375 13.753906 3.570312 15.289062 L 2.738281 17.929688 L 5.648438 16.390625 C 6.6875 16.609375 7.523438 16.832031 8.5625 16.832031 C 8.824219 16.832031 9.085938 16.816406 9.339844 16.796875 C 9.175781 16.210938 9.085938 15.59375 9.085938 14.960938 C 9.085938 11.125 12.207031 8.011719 16.160156 8.011719 Z M 11.6875 5.632812 C 12.3125 5.632812 12.726562 6.066406 12.726562 6.726562 C 12.726562 7.386719 12.3125 7.828125 11.6875 7.828125 C 11.0625 7.828125 10.433594 7.386719 10.433594 6.726562 C 10.4375 6.066406 11.0625 5.632812 11.6875 5.632812 Z M 5.859375 7.828125 C 5.238281 7.828125 4.609375 7.386719 4.609375 6.726562 C 4.609375 6.066406 5.238281 5.632812 5.859375 5.632812 C 6.484375 5.632812 6.898438 6.066406 6.898438 6.726562 C 6.898438 7.386719 6.484375 7.828125 5.859375 7.828125 Z M 5.859375 7.828125 "/>
<path style=" stroke:none;fill-rule:nonzero;fill:rgb(0%,0%,0%);fill-opacity:1;" d="M 23.761719 14.855469 C 23.761719 11.34375 20.429688 8.484375 16.691406 8.484375 C 12.726562 8.484375 9.609375 11.34375 9.609375 14.855469 C 9.609375 18.367188 12.730469 21.222656 16.691406 21.222656 C 17.519531 21.222656 18.355469 21.003906 19.1875 20.78125 L 21.472656 22.097656 L 20.847656 19.90625 C 22.515625 18.585938 23.761719 16.832031 23.761719 14.855469 Z M 14.394531 13.753906 C 13.976562 13.753906 13.558594 13.320312 13.558594 12.875 C 13.558594 12.4375 13.976562 11.996094 14.394531 11.996094 C 15.023438 11.996094 15.433594 12.4375 15.433594 12.875 C 15.433594 13.320312 15.023438 13.753906 14.394531 13.753906 Z M 18.972656 13.753906 C 18.558594 13.753906 18.144531 13.320312 18.144531 12.875 C 18.144531 12.4375 18.558594 11.996094 18.972656 11.996094 C 19.597656 11.996094 20.011719 12.4375 20.011719 12.875 C 20.011719 13.320312 19.597656 13.753906 18.972656 13.753906 Z M 18.972656 13.753906 "/>
</g>
</svg>
